<?xml version="1.0" encoding="utf-8"?>
<!-- Generator: Adobe Illustrator 23.0.3, SVG Export Plug-In . SVG Version: 6.00 Build 0)  -->
<svg version="1.1" id="Layer_1" xmlns="http://www.w3.org/2000/svg" xmlns:xlink="http://www.w3.org/1999/xlink" x="0px" y="0px"
	 viewBox="0 0 418.57 75.44" style="enable-background:new 0 0 418.57 75.44;" xml:space="preserve">
<style type="text/css">
	.st0{fill:#00B336;}
</style>
<g>
	<path class="st0" d="M76.72,1.54c-3.38-1.84-7.53-0.44-9.27,3.12L42.62,58.12l0,0c-0.58,1.15-1.08,1.94-2.4,1.94
		c-1.32,0-1.83-0.79-2.4-1.94l0,0L13,4.65C11.26,1.09,7.11-0.3,3.73,1.53c-3.38,1.84-4.7,6.21-2.96,9.76l24.25,49.48l2.76,5.62
		c2.41,4.93,7.18,7.99,12.45,7.99c5.26,0,10.03-3.06,12.45-7.99l2.76-5.62l24.25-49.48C81.42,7.75,80.09,3.38,76.72,1.54z"/>
	<path class="st0" d="M406.17,0.73c-4.67-0.02-8.76,2.9-10.72,6.91c-6.31,12.87-24.86,51.16-24.94,51.29
		c-0.14,0.24-0.53,1.13-1.33,1.13c-0.75,0-1.19-0.84-1.33-1.14l0,0c-6.15-12.71-18.28-37.81-24.65-50.8c-2.45-5.01-6.56-7.4-11-7.4
		c0,0-0.01,0-0.01,0c-6.83,0-12.36,5.77-12.36,13.62v52.63c0,3.2,1.83,6.16,4.64,7.09c4.58,1.5,8.51-2.5,8.51-7.23l-0.96-51.3
		c0-0.53,0.64-0.72,0.88-0.26l25.33,51.27c2.35,4.91,6.43,7.84,10.95,7.84c4.51,0,8.59-2.93,10.95-7.84l25.34-51.26
		c0.25-0.48,0.91-0.29,0.91,0.27l-0.97,51.59c0,4.08,3.05,7.37,6.78,7.24c3.6-0.12,6.37-3.58,6.37-7.55c0,0,0-39.36,0-52.47
		C418.57,6.43,413.02,0.76,406.17,0.73z"/>
	<path class="st0" d="M311.42,63.69L283.51,8.63c-2.42-4.9-7.18-7.94-12.42-7.94c-3.29,0-6.38,1.19-8.83,3.29
		c-1.47,1.25-2.71,2.83-3.61,4.66l-27.77,54.8c-0.03,0.06-0.05,0.12-0.08,0.17l-0.04,0.08c-1.29,2.55-0.98,5.55,0.55,7.73
		c0.04,0.06,0.08,0.11,0.12,0.17c0.04,0.06,0.09,0.12,0.14,0.18c0.5,0.65,1.1,1.21,1.83,1.65c2.35,1.42,5.13,1.21,7.23-0.25
		c0.03-0.02,0.06-0.04,0.08-0.06c0.15-0.11,0.3-0.22,0.44-0.34c0.12-0.1,0.23-0.21,0.34-0.32c0.05-0.05,0.1-0.09,0.15-0.14
		c0.5-0.51,0.93-1.1,1.27-1.78l1.03-2.18l5.81-12.18c0.15-0.31,0.45-0.51,0.78-0.51h0h25.65c0,0,0,0,0.01,0
		c3.43,0,6.22-2.94,6.22-6.55c0-3.62-2.79-6.55-6.22-6.55h-15.39v0h-3.77c-0.41,0-0.67-0.44-0.52-0.83l1.43-3.03l10.49-21.14
		l0.04-0.09c0.02-0.04,0.04-0.08,0.06-0.12c0,0,0,0.01,0,0c0.17-0.35,0.73-1.86,1.75-2.17c0.56-0.17,1.15-0.15,1.55-0.03
		c1.06,0.32,1.54,1.63,2,2.59c0,0.01,0,0,0,0l25.44,52.82c1.24,2.44,3.62,3.84,6.08,3.84c0.78,0,1.57-0.15,2.34-0.44
		c0.05-0.02,0.1-0.03,0.14-0.05c0.19-0.08,0.37-0.17,0.55-0.27c0.07-0.03,0.14-0.06,0.2-0.1c0.04-0.02,0.07-0.05,0.11-0.07
		c0.05-0.03,0.11-0.05,0.16-0.09c0.08-0.05,0.15-0.11,0.23-0.16c0.07-0.05,0.13-0.09,0.19-0.14c0.1-0.08,0.2-0.15,0.3-0.23
		c0.11-0.09,0.22-0.19,0.33-0.29c0.03-0.03,0.06-0.05,0.08-0.08C312.26,70.26,312.93,66.67,311.42,63.69z"/>
	<g>
		<path class="st0" d="M95.45,45.53h46.97c0.89-0.01,8.16-0.6,8.16-8.82C150.59,16.47,134.94,0,115.71,0
			C96.49,0,80.85,16.47,80.85,36.72c0,0.46,0.03,1.74,0.03,1.93c-0.03,23.12,14.83,35.56,34.49,36.71c0.94,0.05,1.86,0.08,2.76,0.08
			c7.56,0,13.94-1.96,20.87-6.34c0.71-0.44,3.48-2.29,6.31-5.94c2.25-2.9,2.45-7.25,0-9.51c-3.53-3.26-7.16-1.5-10.4,1.26
			c-5.09,4.33-9.03,7.71-19.18,7.72c-9.57,0-18.62-5.46-20.77-16.37C94.88,45.88,95.1,45.53,95.45,45.53z M94.93,31.98
			c1.31-10.6,8.6-20,20.76-20c12.16,0,19.86,9.21,21.08,20c0.04,0.39-0.21,0.76-0.59,0.76H95.52
			C95.14,32.74,94.88,32.38,94.93,31.98z"/>
	</g>
	<g>
		<path class="st0" d="M172.72,45.53h46.97c0.89-0.01,8.16-0.6,8.16-8.82C227.85,16.47,212.2,0,192.98,0
			c-19.23,0-34.87,16.47-34.87,36.72c0,0.46,0.03,1.74,0.03,1.93c-0.03,23.12,14.83,35.56,34.49,36.71
			c0.94,0.05,1.86,0.08,2.76,0.08c7.56,0,13.94-1.96,20.87-6.34c0.71-0.44,3.48-2.29,6.31-5.94c2.25-2.9,2.45-7.25,0-9.51
			c-3.53-3.26-7.16-1.5-10.4,1.26c-5.09,4.33-9.03,7.71-19.18,7.72c-9.57,0-18.62-5.46-20.77-16.37
			C172.14,45.88,172.36,45.53,172.72,45.53z M172.19,31.98c1.31-10.6,8.6-20,20.76-20c12.16,0,19.86,9.21,21.08,20
			c0.04,0.39-0.21,0.76-0.59,0.76h-40.67C172.4,32.74,172.14,32.38,172.19,31.98z"/>
	</g>
</g>
</svg>
